<?xml version="1.0" encoding="UTF-8" standalone="no"?>
<!DOCTYPE svg PUBLIC "-//W3C//DTD SVG 1.1//EN"
 "http://www.w3.org/Graphics/SVG/1.1/DTD/svg11.dtd">
<!-- Generated by graphviz version 2.26.3 (20100126.1600)
 -->
<!-- Title: controllers_diagram Pages: 1 -->
<svg width="740pt" height="520pt"
 viewBox="0.00 0.00 740.00 520.35" xmlns="http://www.w3.org/2000/svg" xmlns:xlink="http://www.w3.org/1999/xlink">
<g id="graph1" class="graph" transform="scale(1 1) rotate(0) translate(4 516.352)">
<title>controllers_diagram</title>
<polygon fill="white" stroke="white" points="-4,5 -4,-516.352 737,-516.352 737,5 -4,5"/>
<!-- _diagram_info -->
<g id="node1" class="node"><title>_diagram_info</title>
<text text-anchor="start" x="529" y="-78.3" font-family="Times Roman,serif" font-size="13.00">Controllers diagram</text>
<text text-anchor="start" x="529" y="-61.3" font-family="Times Roman,serif" font-size="13.00">Date: Feb 16 2013 &#45; 01:47</text>
<text text-anchor="start" x="529" y="-44.3" font-family="Times Roman,serif" font-size="13.00">Migration version: 13</text>
<text text-anchor="start" x="529" y="-27.3" font-family="Times Roman,serif" font-size="13.00">Generated by RailRoady 1.1.0</text>
<text text-anchor="start" x="529" y="-10.3" font-family="Times Roman,serif" font-size="13.00">http://railroady.prestonlee.com</text>
</g>
<!-- ApplicationController -->
<g id="node2" class="node"><title>ApplicationController</title>
<polyline fill="none" stroke="black" points="13,-408.852 227,-408.852 "/>
<path fill="none" stroke="black" d="M227,-408.852C233,-408.852 239,-414.852 239,-420.852"/>
<polyline fill="none" stroke="black" points="239,-420.852 239,-498.852 "/>
<path fill="none" stroke="black" d="M239,-498.852C239,-504.852 233,-510.852 227,-510.852"/>
<polyline fill="none" stroke="black" points="227,-510.852 13,-510.852 "/>
<path fill="none" stroke="black" d="M13,-510.852C7,-510.852 1,-504.852 1,-498.852"/>
<polyline fill="none" stroke="black" points="1,-498.852 1,-420.852 "/>
<path fill="none" stroke="black" d="M1,-420.852C1,-414.852 7,-408.852 13,-408.852"/>
<text text-anchor="middle" x="120" y="-494.252" font-family="Times Roman,serif" font-size="14.00">ApplicationController</text>
<polyline fill="none" stroke="black" points="1,-484.852 239,-484.852 "/>
<text text-anchor="start" x="9" y="-468.252" font-family="Times Roman,serif" font-size="14.00">_one_time_conditions_valid_50?</text>
<polyline fill="none" stroke="black" points="1,-458.852 239,-458.852 "/>
<polyline fill="none" stroke="black" points="1,-434.852 239,-434.852 "/>
<text text-anchor="start" x="9" y="-418.252" font-family="Times Roman,serif" font-size="14.00">_layout</text>
</g>
<!-- HomeController -->
<g id="node3" class="node"><title>HomeController</title>
<polyline fill="none" stroke="black" points="339.683,-400.03 440.683,-400.03 "/>
<path fill="none" stroke="black" d="M440.683,-400.03C446.683,-400.03 452.683,-406.03 452.683,-412.03"/>
<polyline fill="none" stroke="black" points="452.683,-412.03 452.683,-490.03 "/>
<path fill="none" stroke="black" d="M452.683,-490.03C452.683,-496.03 446.683,-502.03 440.683,-502.03"/>
<polyline fill="none" stroke="black" points="440.683,-502.03 339.683,-502.03 "/>
<path fill="none" stroke="black" d="M339.683,-502.03C333.683,-502.03 327.683,-496.03 327.683,-490.03"/>
<polyline fill="none" stroke="black" points="327.683,-490.03 327.683,-412.03 "/>
<path fill="none" stroke="black" d="M327.683,-412.03C327.683,-406.03 333.683,-400.03 339.683,-400.03"/>
<text text-anchor="middle" x="390.183" y="-485.43" font-family="Times Roman,serif" font-size="14.00">HomeController</text>
<polyline fill="none" stroke="black" points="327.683,-476.03 452.683,-476.03 "/>
<text text-anchor="start" x="335.683" y="-459.43" font-family="Times Roman,serif" font-size="14.00">welcome</text>
<polyline fill="none" stroke="black" points="327.683,-450.03 452.683,-450.03 "/>
<polyline fill="none" stroke="black" points="327.683,-426.03 452.683,-426.03 "/>
<text text-anchor="start" x="335.683" y="-409.43" font-family="Times Roman,serif" font-size="14.00">_layout</text>
</g>
<!-- ApplicationController&#45;&gt;HomeController -->
<g id="edge2" class="edge"><title>ApplicationController&#45;&gt;HomeController</title>
<path fill="none" stroke="black" d="M239.293,-455.957C269.686,-454.965 301.161,-453.937 327.449,-453.078"/>
</g>
<!-- QueryAnalysisController -->
<g id="node4" class="node"><title>QueryAnalysisController</title>
<polyline fill="none" stroke="black" points="72.9698,-1.5 421.97,-1.5 "/>
<path fill="none" stroke="black" d="M421.97,-1.5C427.97,-1.5 433.97,-7.5 433.97,-13.5"/>
<polyline fill="none" stroke="black" points="433.97,-13.5 433.97,-379.5 "/>
<path fill="none" stroke="black" d="M433.97,-379.5C433.97,-385.5 427.97,-391.5 421.97,-391.5"/>
<polyline fill="none" stroke="black" points="421.97,-391.5 72.9698,-391.5 "/>
<path fill="none" stroke="black" d="M72.9698,-391.5C66.9698,-391.5 60.9698,-385.5 60.9698,-379.5"/>
<polyline fill="none" stroke="black" points="60.9698,-379.5 60.9698,-13.5 "/>
<path fill="none" stroke="black" d="M60.9698,-13.5C60.9698,-7.5 66.9698,-1.5 72.9698,-1.5"/>
<text text-anchor="middle" x="247.47" y="-374.9" font-family="Times Roman,serif" font-size="14.00">QueryAnalysisController</text>
<polyline fill="none" stroke="black" points="60.9698,-365.5 433.97,-365.5 "/>
<text text-anchor="start" x="68.9698" y="-348.9" font-family="Times Roman,serif" font-size="14.00">_one_time_conditions_valid_92?</text>
<text text-anchor="start" x="68.9698" y="-330.9" font-family="Times Roman,serif" font-size="14.00">blastn</text>
<text text-anchor="start" x="68.9698" y="-312.9" font-family="Times Roman,serif" font-size="14.00">get_blastn_gap_costs_for_match_and_match_scores</text>
<text text-anchor="start" x="68.9698" y="-294.9" font-family="Times Roman,serif" font-size="14.00">get_diff_exp_transcripts_file</text>
<text text-anchor="start" x="68.9698" y="-276.9" font-family="Times Roman,serif" font-size="14.00">get_gene_fastas</text>
<text text-anchor="start" x="68.9698" y="-258.9" font-family="Times Roman,serif" font-size="14.00">get_tblastn_gap_costs_for_matrix</text>
<text text-anchor="start" x="68.9698" y="-240.9" font-family="Times Roman,serif" font-size="14.00">get_transcript_fasta</text>
<text text-anchor="start" x="68.9698" y="-222.9" font-family="Times Roman,serif" font-size="14.00">query_diff_exp_genes</text>
<text text-anchor="start" x="68.9698" y="-204.9" font-family="Times Roman,serif" font-size="14.00">query_diff_exp_transcripts</text>
<text text-anchor="start" x="68.9698" y="-186.9" font-family="Times Roman,serif" font-size="14.00">query_transcript_isoforms</text>
<text text-anchor="start" x="68.9698" y="-168.9" font-family="Times Roman,serif" font-size="14.00">tblastn</text>
<text text-anchor="start" x="68.9698" y="-150.9" font-family="Times Roman,serif" font-size="14.00">tblastx</text>
<text text-anchor="start" x="68.9698" y="-132.9" font-family="Times Roman,serif" font-size="14.00">upload_cuffdiff</text>
<text text-anchor="start" x="68.9698" y="-114.9" font-family="Times Roman,serif" font-size="14.00">upload_main_menu</text>
<text text-anchor="start" x="68.9698" y="-96.9" font-family="Times Roman,serif" font-size="14.00">upload_trinity_with_edger_genes_and_transcripts</text>
<text text-anchor="start" x="68.9698" y="-78.9" font-family="Times Roman,serif" font-size="14.00">upload_trinity_with_edger_transcripts</text>
<text text-anchor="start" x="68.9698" y="-60.9" font-family="Times Roman,serif" font-size="14.00">welcome</text>
<polyline fill="none" stroke="black" points="60.9698,-51.5 433.97,-51.5 "/>
<polyline fill="none" stroke="black" points="60.9698,-27.5 433.97,-27.5 "/>
<text text-anchor="start" x="68.9698" y="-10.9" font-family="Times Roman,serif" font-size="14.00">_layout</text>
</g>
<!-- ApplicationController&#45;&gt;QueryAnalysisController -->
<g id="edge4" class="edge"><title>ApplicationController&#45;&gt;QueryAnalysisController</title>
<path fill="none" stroke="black" d="M144.729,-408.763C147.335,-403.378 150.083,-397.701 152.939,-391.8"/>
</g>
</g>
</svg>
