<?xml version="1.0" encoding="UTF-8" standalone="no"?>
<!DOCTYPE svg PUBLIC "-//W3C//DTD SVG 1.1//EN"
 "http://www.w3.org/Graphics/SVG/1.1/DTD/svg11.dtd">
<!-- Generated by graphviz version 2.26.3 (20100126.1600)
 -->
<!-- Title: controllers_diagram Pages: 1 -->
<svg width="766pt" height="569pt"
 viewBox="0.00 0.00 766.00 568.94" xmlns="http://www.w3.org/2000/svg" xmlns:xlink="http://www.w3.org/1999/xlink">
<g id="graph1" class="graph" transform="scale(1 1) rotate(0) translate(4 564.938)">
<title>controllers_diagram</title>
<polygon fill="white" stroke="white" points="-4,5 -4,-564.938 763,-564.938 763,5 -4,5"/>
<!-- _diagram_info -->
<g id="node1" class="node"><title>_diagram_info</title>
<text text-anchor="start" x="555" y="-78.3" font-family="Times Roman,serif" font-size="13.00">Controllers diagram</text>
<text text-anchor="start" x="555" y="-61.3" font-family="Times Roman,serif" font-size="13.00">Date: Feb 16 2013 &#45; 18:09</text>
<text text-anchor="start" x="555" y="-44.3" font-family="Times Roman,serif" font-size="13.00">Migration version: 13</text>
<text text-anchor="start" x="555" y="-27.3" font-family="Times Roman,serif" font-size="13.00">Generated by RailRoady 1.1.0</text>
<text text-anchor="start" x="555" y="-10.3" font-family="Times Roman,serif" font-size="13.00">http://railroady.prestonlee.com</text>
</g>
<!-- ApplicationController -->
<g id="node2" class="node"><title>ApplicationController</title>
<polyline fill="none" stroke="black" points="13,-457.438 227,-457.438 "/>
<path fill="none" stroke="black" d="M227,-457.438C233,-457.438 239,-463.438 239,-469.438"/>
<polyline fill="none" stroke="black" points="239,-469.438 239,-547.438 "/>
<path fill="none" stroke="black" d="M239,-547.438C239,-553.438 233,-559.438 227,-559.438"/>
<polyline fill="none" stroke="black" points="227,-559.438 13,-559.438 "/>
<path fill="none" stroke="black" d="M13,-559.438C7,-559.438 1,-553.438 1,-547.438"/>
<polyline fill="none" stroke="black" points="1,-547.438 1,-469.438 "/>
<path fill="none" stroke="black" d="M1,-469.438C1,-463.438 7,-457.438 13,-457.438"/>
<text text-anchor="middle" x="120" y="-542.838" font-family="Times Roman,serif" font-size="14.00">ApplicationController</text>
<polyline fill="none" stroke="black" points="1,-533.438 239,-533.438 "/>
<text text-anchor="start" x="9" y="-516.838" font-family="Times Roman,serif" font-size="14.00">_one_time_conditions_valid_50?</text>
<polyline fill="none" stroke="black" points="1,-507.438 239,-507.438 "/>
<polyline fill="none" stroke="black" points="1,-483.438 239,-483.438 "/>
<text text-anchor="start" x="9" y="-466.838" font-family="Times Roman,serif" font-size="14.00">_layout</text>
</g>
<!-- HomeController -->
<g id="node3" class="node"><title>HomeController</title>
<polyline fill="none" stroke="black" points="389.406,-432.349 490.406,-432.349 "/>
<path fill="none" stroke="black" d="M490.406,-432.349C496.406,-432.349 502.406,-438.349 502.406,-444.349"/>
<polyline fill="none" stroke="black" points="502.406,-444.349 502.406,-522.349 "/>
<path fill="none" stroke="black" d="M502.406,-522.349C502.406,-528.349 496.406,-534.349 490.406,-534.349"/>
<polyline fill="none" stroke="black" points="490.406,-534.349 389.406,-534.349 "/>
<path fill="none" stroke="black" d="M389.406,-534.349C383.406,-534.349 377.406,-528.349 377.406,-522.349"/>
<polyline fill="none" stroke="black" points="377.406,-522.349 377.406,-444.349 "/>
<path fill="none" stroke="black" d="M377.406,-444.349C377.406,-438.349 383.406,-432.349 389.406,-432.349"/>
<text text-anchor="middle" x="439.906" y="-517.749" font-family="Times Roman,serif" font-size="14.00">HomeController</text>
<polyline fill="none" stroke="black" points="377.406,-508.349 502.406,-508.349 "/>
<text text-anchor="start" x="385.406" y="-491.749" font-family="Times Roman,serif" font-size="14.00">welcome</text>
<polyline fill="none" stroke="black" points="377.406,-482.349 502.406,-482.349 "/>
<polyline fill="none" stroke="black" points="377.406,-458.349 502.406,-458.349 "/>
<text text-anchor="start" x="385.406" y="-441.749" font-family="Times Roman,serif" font-size="14.00">_layout</text>
</g>
<!-- ApplicationController&#45;&gt;HomeController -->
<g id="edge2" class="edge"><title>ApplicationController&#45;&gt;HomeController</title>
<path fill="none" stroke="black" d="M239.121,-499.096C286.019,-495.418 337.936,-491.346 377.227,-488.265"/>
</g>
<!-- QueryAnalysisController -->
<g id="node4" class="node"><title>QueryAnalysisController</title>
<polyline fill="none" stroke="black" points="70.5369,-43.5 442.537,-43.5 "/>
<path fill="none" stroke="black" d="M442.537,-43.5C448.537,-43.5 454.537,-49.5 454.537,-55.5"/>
<polyline fill="none" stroke="black" points="454.537,-55.5 454.537,-403.5 "/>
<path fill="none" stroke="black" d="M454.537,-403.5C454.537,-409.5 448.537,-415.5 442.537,-415.5"/>
<polyline fill="none" stroke="black" points="442.537,-415.5 70.5369,-415.5 "/>
<path fill="none" stroke="black" d="M70.5369,-415.5C64.5369,-415.5 58.5369,-409.5 58.5369,-403.5"/>
<polyline fill="none" stroke="black" points="58.5369,-403.5 58.5369,-55.5 "/>
<path fill="none" stroke="black" d="M58.5369,-55.5C58.5369,-49.5 64.5369,-43.5 70.5369,-43.5"/>
<text text-anchor="middle" x="256.537" y="-398.9" font-family="Times Roman,serif" font-size="14.00">QueryAnalysisController</text>
<polyline fill="none" stroke="black" points="58.5369,-389.5 454.537,-389.5 "/>
<text text-anchor="start" x="66.5369" y="-372.9" font-family="Times Roman,serif" font-size="14.00">_one_time_conditions_valid_92?</text>
<text text-anchor="start" x="66.5369" y="-354.9" font-family="Times Roman,serif" font-size="14.00">blastn</text>
<text text-anchor="start" x="66.5369" y="-336.9" font-family="Times Roman,serif" font-size="14.00">get_blastn_gap_costs_for_match_and_mismatch_scores</text>
<text text-anchor="start" x="66.5369" y="-318.9" font-family="Times Roman,serif" font-size="14.00">get_gene_fastas</text>
<text text-anchor="start" x="66.5369" y="-300.9" font-family="Times Roman,serif" font-size="14.00">get_tblastn_gap_costs_for_matrix</text>
<text text-anchor="start" x="66.5369" y="-282.9" font-family="Times Roman,serif" font-size="14.00">get_transcript_fasta</text>
<text text-anchor="start" x="66.5369" y="-264.9" font-family="Times Roman,serif" font-size="14.00">query_diff_exp_genes</text>
<text text-anchor="start" x="66.5369" y="-246.9" font-family="Times Roman,serif" font-size="14.00">query_diff_exp_transcripts</text>
<text text-anchor="start" x="66.5369" y="-228.9" font-family="Times Roman,serif" font-size="14.00">query_transcript_isoforms</text>
<text text-anchor="start" x="66.5369" y="-210.9" font-family="Times Roman,serif" font-size="14.00">tblastn</text>
<text text-anchor="start" x="66.5369" y="-192.9" font-family="Times Roman,serif" font-size="14.00">tblastx</text>
<text text-anchor="start" x="66.5369" y="-174.9" font-family="Times Roman,serif" font-size="14.00">upload_cuffdiff</text>
<text text-anchor="start" x="66.5369" y="-156.9" font-family="Times Roman,serif" font-size="14.00">upload_main_menu</text>
<text text-anchor="start" x="66.5369" y="-138.9" font-family="Times Roman,serif" font-size="14.00">upload_trinity_with_edger_genes_and_transcripts</text>
<text text-anchor="start" x="66.5369" y="-120.9" font-family="Times Roman,serif" font-size="14.00">upload_trinity_with_edger_transcripts</text>
<text text-anchor="start" x="66.5369" y="-102.9" font-family="Times Roman,serif" font-size="14.00">welcome</text>
<polyline fill="none" stroke="black" points="58.5369,-93.5 454.537,-93.5 "/>
<polyline fill="none" stroke="black" points="58.5369,-69.5 454.537,-69.5 "/>
<text text-anchor="start" x="66.5369" y="-52.9" font-family="Times Roman,serif" font-size="14.00">_layout</text>
</g>
<!-- ApplicationController&#45;&gt;QueryAnalysisController -->
<g id="edge4" class="edge"><title>ApplicationController&#45;&gt;QueryAnalysisController</title>
<path fill="none" stroke="black" d="M145.043,-457.277C151.163,-444.773 158.071,-430.661 165.374,-415.741"/>
</g>
</g>
</svg>
