<?xml version="1.0" encoding="UTF-8" standalone="no"?>
<!DOCTYPE svg PUBLIC "-//W3C//DTD SVG 1.1//EN"
 "http://www.w3.org/Graphics/SVG/1.1/DTD/svg11.dtd">
<!-- Generated by graphviz version 2.26.3 (20100126.1600)
 -->
<!-- Title: models_diagram Pages: 1 -->
<svg width="930pt" height="1214pt"
 viewBox="0.00 0.00 930.10 1214.00" xmlns="http://www.w3.org/2000/svg" xmlns:xlink="http://www.w3.org/1999/xlink">
<g id="graph1" class="graph" transform="scale(1 1) rotate(0) translate(4 1210)">
<title>models_diagram</title>
<polygon fill="white" stroke="white" points="-4,5 -4,-1210 927.103,-1210 927.103,5 -4,5"/>
<!-- _diagram_info -->
<g id="node1" class="node"><title>_diagram_info</title>
<text text-anchor="start" x="193.103" y="-1074.8" font-family="Times Roman,serif" font-size="13.00">Models diagram</text>
<text text-anchor="start" x="193.103" y="-1057.8" font-family="Times Roman,serif" font-size="13.00">Date: Feb 16 2013 &#45; 18:09</text>
<text text-anchor="start" x="193.103" y="-1040.8" font-family="Times Roman,serif" font-size="13.00">Migration version: 13</text>
<text text-anchor="start" x="193.103" y="-1023.8" font-family="Times Roman,serif" font-size="13.00">Generated by RailRoady 1.1.0</text>
<text text-anchor="start" x="193.103" y="-1006.8" font-family="Times Roman,serif" font-size="13.00">http://railroady.prestonlee.com</text>
</g>
<!-- Transcript -->
<g id="node2" class="node"><title>Transcript</title>
<polyline fill="none" stroke="black" points="316.103,-343 500.103,-343 "/>
<path fill="none" stroke="black" d="M500.103,-343C506.103,-343 512.103,-349 512.103,-355"/>
<polyline fill="none" stroke="black" points="512.103,-355 512.103,-455 "/>
<path fill="none" stroke="black" d="M512.103,-455C512.103,-461 506.103,-467 500.103,-467"/>
<polyline fill="none" stroke="black" points="500.103,-467 316.103,-467 "/>
<path fill="none" stroke="black" d="M316.103,-467C310.103,-467 304.103,-461 304.103,-455"/>
<polyline fill="none" stroke="black" points="304.103,-455 304.103,-355 "/>
<path fill="none" stroke="black" d="M304.103,-355C304.103,-349 310.103,-343 316.103,-343"/>
<text text-anchor="middle" x="408.103" y="-450.4" font-family="Times Roman,serif" font-size="14.00">Transcript</text>
<polyline fill="none" stroke="black" points="304.103,-441 512.103,-441 "/>
<text text-anchor="start" x="312.103" y="-424.4" font-family="Times Roman,serif" font-size="14.00">id :integer</text>
<text text-anchor="start" x="312.103" y="-406.4" font-family="Times Roman,serif" font-size="14.00">dataset_id :integer</text>
<text text-anchor="start" x="312.103" y="-388.4" font-family="Times Roman,serif" font-size="14.00">gene_id :integer</text>
<text text-anchor="start" x="312.103" y="-370.4" font-family="Times Roman,serif" font-size="14.00">name_from_program :string</text>
<text text-anchor="start" x="312.103" y="-352.4" font-family="Times Roman,serif" font-size="14.00">blast_seq_id :string</text>
</g>
<!-- FpkmSample -->
<g id="node4" class="node"><title>FpkmSample</title>
<polyline fill="none" stroke="black" points="668.603,-118 805.603,-118 "/>
<path fill="none" stroke="black" d="M805.603,-118C811.603,-118 817.603,-124 817.603,-130"/>
<polyline fill="none" stroke="black" points="817.603,-130 817.603,-284 "/>
<path fill="none" stroke="black" d="M817.603,-284C817.603,-290 811.603,-296 805.603,-296"/>
<polyline fill="none" stroke="black" points="805.603,-296 668.603,-296 "/>
<path fill="none" stroke="black" d="M668.603,-296C662.603,-296 656.603,-290 656.603,-284"/>
<polyline fill="none" stroke="black" points="656.603,-284 656.603,-130 "/>
<path fill="none" stroke="black" d="M656.603,-130C656.603,-124 662.603,-118 668.603,-118"/>
<text text-anchor="middle" x="737.103" y="-279.4" font-family="Times Roman,serif" font-size="14.00">FpkmSample</text>
<polyline fill="none" stroke="black" points="656.603,-270 817.603,-270 "/>
<text text-anchor="start" x="664.603" y="-253.4" font-family="Times Roman,serif" font-size="14.00">id :integer</text>
<text text-anchor="start" x="664.603" y="-235.4" font-family="Times Roman,serif" font-size="14.00">gene_id :integer</text>
<text text-anchor="start" x="664.603" y="-217.4" font-family="Times Roman,serif" font-size="14.00">transcript_id :integer</text>
<text text-anchor="start" x="664.603" y="-199.4" font-family="Times Roman,serif" font-size="14.00">sample_id :integer</text>
<text text-anchor="start" x="664.603" y="-181.4" font-family="Times Roman,serif" font-size="14.00">fpkm :decimal</text>
<text text-anchor="start" x="664.603" y="-163.4" font-family="Times Roman,serif" font-size="14.00">fpkm_hi :decimal</text>
<text text-anchor="start" x="664.603" y="-145.4" font-family="Times Roman,serif" font-size="14.00">fpkm_lo :decimal</text>
<text text-anchor="start" x="664.603" y="-127.4" font-family="Times Roman,serif" font-size="14.00">status :string</text>
</g>
<!-- Transcript&#45;&gt;FpkmSample -->
<g id="edge4" class="edge"><title>Transcript&#45;&gt;FpkmSample</title>
<path fill="none" stroke="#e4e762" d="M519.811,-370.774C562.17,-354.84 609.464,-333.287 648.103,-306 649.731,-304.85 651.35,-303.665 652.96,-302.449"/>
<ellipse fill="none" stroke="#e4e762" cx="515.988" cy="-372.192" rx="4.00001" ry="4.00001"/>
<polygon fill="#e4e762" stroke="#e4e762" points="653.09,-302.346 663.719,-299.649 657.004,-299.236 660.919,-296.126 660.919,-296.126 660.919,-296.126 657.004,-299.236 658.12,-292.602 653.09,-302.346 653.09,-302.346"/>
</g>
<!-- TranscriptFpkmTrackingInformation -->
<g id="node5" class="node"><title>TranscriptFpkmTrackingInformation</title>
<polyline fill="none" stroke="black" points="58.6025,-154 293.603,-154 "/>
<path fill="none" stroke="black" d="M293.603,-154C299.603,-154 305.603,-160 305.603,-166"/>
<polyline fill="none" stroke="black" points="305.603,-166 305.603,-248 "/>
<path fill="none" stroke="black" d="M305.603,-248C305.603,-254 299.603,-260 293.603,-260"/>
<polyline fill="none" stroke="black" points="293.603,-260 58.6025,-260 "/>
<path fill="none" stroke="black" d="M58.6025,-260C52.6025,-260 46.6025,-254 46.6025,-248"/>
<polyline fill="none" stroke="black" points="46.6025,-248 46.6025,-166 "/>
<path fill="none" stroke="black" d="M46.6025,-166C46.6025,-160 52.6025,-154 58.6025,-154"/>
<text text-anchor="middle" x="176.103" y="-243.4" font-family="Times Roman,serif" font-size="14.00">TranscriptFpkmTrackingInformation</text>
<polyline fill="none" stroke="black" points="46.6025,-234 305.603,-234 "/>
<text text-anchor="start" x="54.6025" y="-217.4" font-family="Times Roman,serif" font-size="14.00">transcript_id :integer</text>
<text text-anchor="start" x="54.6025" y="-199.4" font-family="Times Roman,serif" font-size="14.00">class_code :string</text>
<text text-anchor="start" x="54.6025" y="-181.4" font-family="Times Roman,serif" font-size="14.00">length :integer</text>
<text text-anchor="start" x="54.6025" y="-163.4" font-family="Times Roman,serif" font-size="14.00">coverage :decimal</text>
</g>
<!-- Transcript&#45;&gt;TranscriptFpkmTrackingInformation -->
<g id="edge6" class="edge"><title>Transcript&#45;&gt;TranscriptFpkmTrackingInformation</title>
<path fill="none" stroke="#5a513c" d="M329.077,-337.556C301.688,-314.18 271.227,-288.184 244.742,-265.581"/>
<ellipse fill="none" stroke="#5a513c" cx="332.29" cy="-340.298" rx="4.00002" ry="4.00002"/>
<ellipse fill="#5a513c" stroke="#5a513c" cx="241.496" cy="-262.81" rx="4.00002" ry="4.00002"/>
</g>
<!-- DifferentialExpressionTest -->
<g id="node8" class="node"><title>DifferentialExpressionTest</title>
<polyline fill="none" stroke="black" points="451.103,-109 627.103,-109 "/>
<path fill="none" stroke="black" d="M627.103,-109C633.103,-109 639.103,-115 639.103,-121"/>
<polyline fill="none" stroke="black" points="639.103,-121 639.103,-293 "/>
<path fill="none" stroke="black" d="M639.103,-293C639.103,-299 633.103,-305 627.103,-305"/>
<polyline fill="none" stroke="black" points="627.103,-305 451.103,-305 "/>
<path fill="none" stroke="black" d="M451.103,-305C445.103,-305 439.103,-299 439.103,-293"/>
<polyline fill="none" stroke="black" points="439.103,-293 439.103,-121 "/>
<path fill="none" stroke="black" d="M439.103,-121C439.103,-115 445.103,-109 451.103,-109"/>
<text text-anchor="middle" x="539.103" y="-288.4" font-family="Times Roman,serif" font-size="14.00">DifferentialExpressionTest</text>
<polyline fill="none" stroke="black" points="439.103,-279 639.103,-279 "/>
<text text-anchor="start" x="447.103" y="-262.4" font-family="Times Roman,serif" font-size="14.00">id :integer</text>
<text text-anchor="start" x="447.103" y="-244.4" font-family="Times Roman,serif" font-size="14.00">fpkm_sample_1_id :integer</text>
<text text-anchor="start" x="447.103" y="-226.4" font-family="Times Roman,serif" font-size="14.00">fpkm_sample_2_id :integer</text>
<text text-anchor="start" x="447.103" y="-208.4" font-family="Times Roman,serif" font-size="14.00">gene_id :integer</text>
<text text-anchor="start" x="447.103" y="-190.4" font-family="Times Roman,serif" font-size="14.00">transcript_id :integer</text>
<text text-anchor="start" x="447.103" y="-172.4" font-family="Times Roman,serif" font-size="14.00">test_status :string</text>
<text text-anchor="start" x="447.103" y="-154.4" font-family="Times Roman,serif" font-size="14.00">log_fold_change :decimal</text>
<text text-anchor="start" x="447.103" y="-136.4" font-family="Times Roman,serif" font-size="14.00">p_value :decimal</text>
<text text-anchor="start" x="447.103" y="-118.4" font-family="Times Roman,serif" font-size="14.00">fdr :decimal</text>
</g>
<!-- Transcript&#45;&gt;DifferentialExpressionTest -->
<g id="edge2" class="edge"><title>Transcript&#45;&gt;DifferentialExpressionTest</title>
<path fill="none" stroke="#63afe9" d="M453.722,-336.049C458.477,-328.861 463.388,-321.439 468.338,-313.957"/>
<ellipse fill="none" stroke="#63afe9" cx="451.399" cy="-339.559" rx="4.00002" ry="4.00002"/>
<polygon fill="#63afe9" stroke="#63afe9" points="468.644,-313.495 477.915,-307.638 471.403,-309.325 474.162,-305.155 474.162,-305.155 474.162,-305.155 471.403,-309.325 470.409,-302.672 468.644,-313.495 468.644,-313.495"/>
</g>
<!-- GoTerm -->
<g id="node9" class="node"><title>GoTerm</title>
<polyline fill="none" stroke="black" points="335.103,-172 409.103,-172 "/>
<path fill="none" stroke="black" d="M409.103,-172C415.103,-172 421.103,-178 421.103,-184"/>
<polyline fill="none" stroke="black" points="421.103,-184 421.103,-230 "/>
<path fill="none" stroke="black" d="M421.103,-230C421.103,-236 415.103,-242 409.103,-242"/>
<polyline fill="none" stroke="black" points="409.103,-242 335.103,-242 "/>
<path fill="none" stroke="black" d="M335.103,-242C329.103,-242 323.103,-236 323.103,-230"/>
<polyline fill="none" stroke="black" points="323.103,-230 323.103,-184 "/>
<path fill="none" stroke="black" d="M323.103,-184C323.103,-178 329.103,-172 335.103,-172"/>
<text text-anchor="middle" x="372.103" y="-225.4" font-family="Times Roman,serif" font-size="14.00">GoTerm</text>
<polyline fill="none" stroke="black" points="323.103,-216 421.103,-216 "/>
<text text-anchor="start" x="331.103" y="-199.4" font-family="Times Roman,serif" font-size="14.00">id :string</text>
<text text-anchor="start" x="331.103" y="-181.4" font-family="Times Roman,serif" font-size="14.00">term :string</text>
</g>
<!-- Transcript&#45;&gt;GoTerm -->
<g id="edge10" class="edge"><title>Transcript&#45;&gt;GoTerm</title>
<path fill="none" stroke="#c9d784" d="M395.01,-332.991C390.083,-305.895 384.626,-275.877 380.273,-251.94"/>
<polygon fill="#c9d784" stroke="#c9d784" points="395.022,-333.056 392.383,-343.7 395.916,-337.975 396.811,-342.895 396.811,-342.895 396.811,-342.895 395.916,-337.975 401.238,-342.09 395.022,-333.056 395.022,-333.056"/>
<polygon fill="#c9d784" stroke="#c9d784" points="380.27,-251.919 382.908,-241.275 379.375,-247 378.481,-242.08 378.481,-242.08 378.481,-242.08 379.375,-247 374.053,-242.885 380.27,-251.919 380.27,-251.919"/>
</g>
<!-- TranscriptHasGoTerm -->
<g id="node12" class="node"><title>TranscriptHasGoTerm</title>
<polyline fill="none" stroke="black" points="125.603,-1 264.603,-1 "/>
<path fill="none" stroke="black" d="M264.603,-1C270.603,-1 276.603,-7 276.603,-13"/>
<polyline fill="none" stroke="black" points="276.603,-13 276.603,-59 "/>
<path fill="none" stroke="black" d="M276.603,-59C276.603,-65 270.603,-71 264.603,-71"/>
<polyline fill="none" stroke="black" points="264.603,-71 125.603,-71 "/>
<path fill="none" stroke="black" d="M125.603,-71C119.603,-71 113.603,-65 113.603,-59"/>
<polyline fill="none" stroke="black" points="113.603,-59 113.603,-13 "/>
<path fill="none" stroke="black" d="M113.603,-13C113.603,-7 119.603,-1 125.603,-1"/>
<text text-anchor="middle" x="195.103" y="-54.4" font-family="Times Roman,serif" font-size="14.00">TranscriptHasGoTerm</text>
<polyline fill="none" stroke="black" points="113.603,-45 276.603,-45 "/>
<text text-anchor="start" x="121.603" y="-28.4" font-family="Times Roman,serif" font-size="14.00">transcript_id :integer</text>
<text text-anchor="start" x="121.603" y="-10.4" font-family="Times Roman,serif" font-size="14.00">go_term_id :string</text>
</g>
<!-- Transcript&#45;&gt;TranscriptHasGoTerm -->
<g id="edge8" class="edge"><title>Transcript&#45;&gt;TranscriptHasGoTerm</title>
<path fill="none" stroke="#9ab40c" d="M295.683,-390.06C198.733,-374.598 69.5099,-346.916 38.1025,-306 -15.4809,-236.194 -9.41528,-182.068 38.1025,-108 53.2445,-84.3975 78.2741,-68.4311 103.947,-57.6713"/>
<ellipse fill="none" stroke="#9ab40c" cx="299.828" cy="-390.713" rx="4.00001" ry="4.00001"/>
<polygon fill="#9ab40c" stroke="#9ab40c" points="104.114,-57.6056 115.068,-58.1248 108.766,-55.7719 113.417,-53.9383 113.417,-53.9383 113.417,-53.9383 108.766,-55.7719 111.767,-49.7518 104.114,-57.6056 104.114,-57.6056"/>
</g>
<!-- Sample -->
<g id="node3" class="node"><title>Sample</title>
<polyline fill="none" stroke="black" points="675.103,-505 797.103,-505 "/>
<path fill="none" stroke="black" d="M797.103,-505C803.103,-505 809.103,-511 809.103,-517"/>
<polyline fill="none" stroke="black" points="809.103,-517 809.103,-581 "/>
<path fill="none" stroke="black" d="M809.103,-581C809.103,-587 803.103,-593 797.103,-593"/>
<polyline fill="none" stroke="black" points="797.103,-593 675.103,-593 "/>
<path fill="none" stroke="black" d="M675.103,-593C669.103,-593 663.103,-587 663.103,-581"/>
<polyline fill="none" stroke="black" points="663.103,-581 663.103,-517 "/>
<path fill="none" stroke="black" d="M663.103,-517C663.103,-511 669.103,-505 675.103,-505"/>
<text text-anchor="middle" x="736.103" y="-576.4" font-family="Times Roman,serif" font-size="14.00">Sample</text>
<polyline fill="none" stroke="black" points="663.103,-567 809.103,-567 "/>
<text text-anchor="start" x="671.103" y="-550.4" font-family="Times Roman,serif" font-size="14.00">id :integer</text>
<text text-anchor="start" x="671.103" y="-532.4" font-family="Times Roman,serif" font-size="14.00">name :string</text>
<text text-anchor="start" x="671.103" y="-514.4" font-family="Times Roman,serif" font-size="14.00">dataset_id :integer</text>
</g>
<!-- Sample&#45;&gt;Sample -->
<g id="edge16" class="edge"><title>Sample&#45;&gt;Sample</title>
<path fill="none" stroke="#defe46" d="M818.139,-568.492C823.714,-564.005 827.103,-557.508 827.103,-549 827.103,-540.492 823.714,-533.995 818.139,-529.508"/>
<polygon fill="#defe46" stroke="#defe46" points="818.052,-568.539 807.122,-569.422 813.673,-570.951 809.293,-573.363 809.293,-573.363 809.293,-573.363 813.673,-570.951 811.464,-577.305 818.052,-568.539 818.052,-568.539"/>
<polygon fill="#defe46" stroke="#defe46" points="818.052,-529.461 811.464,-520.695 813.673,-527.049 809.293,-524.637 809.293,-524.637 809.293,-524.637 813.673,-527.049 807.122,-528.578 818.052,-529.461 818.052,-529.461"/>
</g>
<!-- Sample&#45;&gt;FpkmSample -->
<g id="edge12" class="edge"><title>Sample&#45;&gt;FpkmSample</title>
<path fill="none" stroke="#3f2c48" d="M736.255,-496.716C736.403,-446.306 736.63,-368.722 736.812,-306.523"/>
<ellipse fill="none" stroke="#3f2c48" cx="736.243" cy="-500.99" rx="4" ry="4"/>
<polygon fill="#3f2c48" stroke="#3f2c48" points="736.812,-306.286 741.341,-296.299 736.827,-301.286 736.841,-296.286 736.841,-296.286 736.841,-296.286 736.827,-301.286 732.341,-296.273 736.812,-306.286 736.812,-306.286"/>
</g>
<!-- SampleComparison -->
<g id="node11" class="node"><title>SampleComparison</title>
<polyline fill="none" stroke="black" points="775.603,-370 910.603,-370 "/>
<path fill="none" stroke="black" d="M910.603,-370C916.603,-370 922.603,-376 922.603,-382"/>
<polyline fill="none" stroke="black" points="922.603,-382 922.603,-428 "/>
<path fill="none" stroke="black" d="M922.603,-428C922.603,-434 916.603,-440 910.603,-440"/>
<polyline fill="none" stroke="black" points="910.603,-440 775.603,-440 "/>
<path fill="none" stroke="black" d="M775.603,-440C769.603,-440 763.603,-434 763.603,-428"/>
<polyline fill="none" stroke="black" points="763.603,-428 763.603,-382 "/>
<path fill="none" stroke="black" d="M763.603,-382C763.603,-376 769.603,-370 775.603,-370"/>
<text text-anchor="middle" x="843.103" y="-423.4" font-family="Times Roman,serif" font-size="14.00">SampleComparison</text>
<polyline fill="none" stroke="black" points="763.603,-414 922.603,-414 "/>
<text text-anchor="start" x="771.603" y="-397.4" font-family="Times Roman,serif" font-size="14.00">sample_1_id :integer</text>
<text text-anchor="start" x="771.603" y="-379.4" font-family="Times Roman,serif" font-size="14.00">sample_2_id :integer</text>
</g>
<!-- Sample&#45;&gt;SampleComparison -->
<g id="edge14" class="edge"><title>Sample&#45;&gt;SampleComparison</title>
<path fill="none" stroke="#3081e8" d="M774.203,-497.724C786.12,-481.687 799.15,-464.15 810.641,-448.687"/>
<ellipse fill="none" stroke="#3081e8" cx="771.465" cy="-501.41" rx="4.00002" ry="4.00002"/>
<polygon fill="#3081e8" stroke="#3081e8" points="810.885,-448.358 820.461,-443.015 813.867,-444.345 816.849,-440.332 816.849,-440.332 816.849,-440.332 813.867,-444.345 813.237,-437.648 810.885,-448.358 810.885,-448.358"/>
</g>
<!-- Gene -->
<g id="node6" class="node"><title>Gene</title>
<polyline fill="none" stroke="black" points="448.103,-505 632.103,-505 "/>
<path fill="none" stroke="black" d="M632.103,-505C638.103,-505 644.103,-511 644.103,-517"/>
<polyline fill="none" stroke="black" points="644.103,-517 644.103,-581 "/>
<path fill="none" stroke="black" d="M644.103,-581C644.103,-587 638.103,-593 632.103,-593"/>
<polyline fill="none" stroke="black" points="632.103,-593 448.103,-593 "/>
<path fill="none" stroke="black" d="M448.103,-593C442.103,-593 436.103,-587 436.103,-581"/>
<polyline fill="none" stroke="black" points="436.103,-581 436.103,-517 "/>
<path fill="none" stroke="black" d="M436.103,-517C436.103,-511 442.103,-505 448.103,-505"/>
<text text-anchor="middle" x="540.103" y="-576.4" font-family="Times Roman,serif" font-size="14.00">Gene</text>
<polyline fill="none" stroke="black" points="436.103,-567 644.103,-567 "/>
<text text-anchor="start" x="444.103" y="-550.4" font-family="Times Roman,serif" font-size="14.00">id :integer</text>
<text text-anchor="start" x="444.103" y="-532.4" font-family="Times Roman,serif" font-size="14.00">dataset_id :integer</text>
<text text-anchor="start" x="444.103" y="-514.4" font-family="Times Roman,serif" font-size="14.00">name_from_program :string</text>
</g>
<!-- Gene&#45;&gt;Transcript -->
<g id="edge18" class="edge"><title>Gene&#45;&gt;Transcript</title>
<path fill="none" stroke="#8ec11b" d="M494.009,-498.716C486.876,-490.935 479.4,-482.78 471.961,-474.664"/>
<ellipse fill="none" stroke="#8ec11b" cx="496.718" cy="-501.672" rx="4.00002" ry="4.00002"/>
<polygon fill="#8ec11b" stroke="#8ec11b" points="471.908,-474.605 468.467,-464.193 468.529,-470.92 465.15,-467.234 465.15,-467.234 465.15,-467.234 468.529,-470.92 461.833,-470.275 471.908,-474.605 471.908,-474.605"/>
</g>
<!-- Gene&#45;&gt;FpkmSample -->
<g id="edge22" class="edge"><title>Gene&#45;&gt;FpkmSample</title>
<path fill="none" stroke="#74f686" d="M569.466,-498.024C598.705,-447.263 644.34,-368.04 680.618,-305.06"/>
<ellipse fill="none" stroke="#74f686" cx="567.45" cy="-501.524" rx="4.00002" ry="4.00002"/>
<polygon fill="#74f686" stroke="#74f686" points="680.68,-304.951 689.571,-298.532 683.176,-300.619 685.672,-296.286 685.672,-296.286 685.672,-296.286 683.176,-300.619 681.772,-294.04 680.68,-304.951 680.68,-304.951"/>
</g>
<!-- Gene&#45;&gt;DifferentialExpressionTest -->
<g id="edge20" class="edge"><title>Gene&#45;&gt;DifferentialExpressionTest</title>
<path fill="none" stroke="#640ff1" d="M539.95,-496.769C539.809,-448.642 539.596,-375.713 539.418,-315.062"/>
<ellipse fill="none" stroke="#640ff1" cx="539.962" cy="-500.99" rx="4" ry="4"/>
<polygon fill="#640ff1" stroke="#640ff1" points="539.419,-315.053 543.889,-305.039 539.404,-310.053 539.389,-305.053 539.389,-305.053 539.389,-305.053 539.404,-310.053 534.889,-305.066 539.419,-315.053 539.419,-315.053"/>
</g>
<!-- Dataset -->
<g id="node7" class="node"><title>Dataset</title>
<polyline fill="none" stroke="black" points="431.103,-631 649.103,-631 "/>
<path fill="none" stroke="black" d="M649.103,-631C655.103,-631 661.103,-637 661.103,-643"/>
<polyline fill="none" stroke="black" points="661.103,-643 661.103,-833 "/>
<path fill="none" stroke="black" d="M661.103,-833C661.103,-839 655.103,-845 649.103,-845"/>
<polyline fill="none" stroke="black" points="649.103,-845 431.103,-845 "/>
<path fill="none" stroke="black" d="M431.103,-845C425.103,-845 419.103,-839 419.103,-833"/>
<polyline fill="none" stroke="black" points="419.103,-833 419.103,-643 "/>
<path fill="none" stroke="black" d="M419.103,-643C419.103,-637 425.103,-631 431.103,-631"/>
<text text-anchor="middle" x="540.103" y="-828.4" font-family="Times Roman,serif" font-size="14.00">Dataset</text>
<polyline fill="none" stroke="black" points="419.103,-819 661.103,-819 "/>
<text text-anchor="start" x="427.103" y="-802.4" font-family="Times Roman,serif" font-size="14.00">id :integer</text>
<text text-anchor="start" x="427.103" y="-784.4" font-family="Times Roman,serif" font-size="14.00">name :string</text>
<text text-anchor="start" x="427.103" y="-766.4" font-family="Times Roman,serif" font-size="14.00">has_transcript_diff_exp :boolean</text>
<text text-anchor="start" x="427.103" y="-748.4" font-family="Times Roman,serif" font-size="14.00">has_transcript_isoforms :boolean</text>
<text text-anchor="start" x="427.103" y="-730.4" font-family="Times Roman,serif" font-size="14.00">has_gene_diff_exp :boolean</text>
<text text-anchor="start" x="427.103" y="-712.4" font-family="Times Roman,serif" font-size="14.00">blast_db_location :string</text>
<text text-anchor="start" x="427.103" y="-694.4" font-family="Times Roman,serif" font-size="14.00">user_id :integer</text>
<text text-anchor="start" x="427.103" y="-676.4" font-family="Times Roman,serif" font-size="14.00">when_last_queried :datetime</text>
<text text-anchor="start" x="427.103" y="-658.4" font-family="Times Roman,serif" font-size="14.00">created_at :datetime</text>
<text text-anchor="start" x="427.103" y="-640.4" font-family="Times Roman,serif" font-size="14.00">updated_at :datetime</text>
</g>
<!-- Dataset&#45;&gt;Transcript -->
<g id="edge26" class="edge"><title>Dataset&#45;&gt;Transcript</title>
<path fill="none" stroke="#cbc493" d="M441.755,-623.726C436.153,-614.039 431.162,-604.081 427.103,-594 412.297,-557.229 407.207,-513.322 405.971,-477.086"/>
<ellipse fill="none" stroke="#cbc493" cx="443.886" cy="-627.296" rx="4.00002" ry="4.00002"/>
<polygon fill="#cbc493" stroke="#cbc493" points="405.971,-477.079 410.219,-466.969 405.846,-472.08 405.72,-467.082 405.72,-467.082 405.72,-467.082 405.846,-472.08 401.222,-467.195 405.971,-477.079 405.971,-477.079"/>
</g>
<!-- Dataset&#45;&gt;Sample -->
<g id="edge28" class="edge"><title>Dataset&#45;&gt;Sample</title>
<path fill="none" stroke="#f0bd2c" d="M657.327,-624.962C666.144,-616.46 674.746,-608.165 682.83,-600.37"/>
<ellipse fill="none" stroke="#f0bd2c" cx="654.153" cy="-628.022" rx="4.00002" ry="4.00002"/>
<polygon fill="#f0bd2c" stroke="#f0bd2c" points="682.902,-600.3 693.224,-596.598 686.502,-596.829 690.101,-593.359 690.101,-593.359 690.101,-593.359 686.502,-596.829 686.977,-590.119 682.902,-600.3 682.902,-600.3"/>
</g>
<!-- Dataset&#45;&gt;Gene -->
<g id="edge24" class="edge"><title>Dataset&#45;&gt;Gene</title>
<path fill="none" stroke="#af5c80" d="M540.103,-622.523C540.103,-615.964 540.103,-609.547 540.103,-603.406"/>
<ellipse fill="none" stroke="#af5c80" cx="540.103" cy="-626.799" rx="4" ry="4"/>
<polygon fill="#af5c80" stroke="#af5c80" points="540.103,-603.359 544.603,-593.359 540.103,-598.359 540.103,-593.359 540.103,-593.359 540.103,-593.359 540.103,-598.359 535.603,-593.359 540.103,-603.359 540.103,-603.359"/>
</g>
<!-- GoTerm&#45;&gt;TranscriptHasGoTerm -->
<g id="edge30" class="edge"><title>GoTerm&#45;&gt;TranscriptHasGoTerm</title>
<path fill="none" stroke="#1654ee" d="M353.05,-164.28C343.264,-145.528 330.03,-124.154 314.103,-108 302.59,-96.3236 288.812,-85.7756 274.781,-76.579"/>
<ellipse fill="none" stroke="#1654ee" cx="354.951" cy="-168.024" rx="4.00002" ry="4.00002"/>
<polygon fill="#1654ee" stroke="#1654ee" points="274.475,-76.3848 268.439,-67.2292 270.252,-73.7072 266.029,-71.0295 266.029,-71.0295 266.029,-71.0295 270.252,-73.7072 263.619,-74.8298 274.475,-76.3848 274.475,-76.3848"/>
</g>
<!-- User -->
<g id="node10" class="node"><title>User</title>
<polyline fill="none" stroke="black" points="425.103,-883 655.103,-883 "/>
<path fill="none" stroke="black" d="M655.103,-883C661.103,-883 667.103,-889 667.103,-895"/>
<polyline fill="none" stroke="black" points="667.103,-895 667.103,-1193 "/>
<path fill="none" stroke="black" d="M667.103,-1193C667.103,-1199 661.103,-1205 655.103,-1205"/>
<polyline fill="none" stroke="black" points="655.103,-1205 425.103,-1205 "/>
<path fill="none" stroke="black" d="M425.103,-1205C419.103,-1205 413.103,-1199 413.103,-1193"/>
<polyline fill="none" stroke="black" points="413.103,-1193 413.103,-895 "/>
<path fill="none" stroke="black" d="M413.103,-895C413.103,-889 419.103,-883 425.103,-883"/>
<text text-anchor="middle" x="540.103" y="-1188.4" font-family="Times Roman,serif" font-size="14.00">User</text>
<polyline fill="none" stroke="black" points="413.103,-1179 667.103,-1179 "/>
<text text-anchor="start" x="421.103" y="-1162.4" font-family="Times Roman,serif" font-size="14.00">id :integer</text>
<text text-anchor="start" x="421.103" y="-1144.4" font-family="Times Roman,serif" font-size="14.00">email :string</text>
<text text-anchor="start" x="421.103" y="-1126.4" font-family="Times Roman,serif" font-size="14.00">encrypted_password :string</text>
<text text-anchor="start" x="421.103" y="-1108.4" font-family="Times Roman,serif" font-size="14.00">reset_password_token :string</text>
<text text-anchor="start" x="421.103" y="-1090.4" font-family="Times Roman,serif" font-size="14.00">reset_password_sent_at :datetime</text>
<text text-anchor="start" x="421.103" y="-1072.4" font-family="Times Roman,serif" font-size="14.00">remember_created_at :datetime</text>
<text text-anchor="start" x="421.103" y="-1054.4" font-family="Times Roman,serif" font-size="14.00">sign_in_count :integer</text>
<text text-anchor="start" x="421.103" y="-1036.4" font-family="Times Roman,serif" font-size="14.00">current_sign_in_at :datetime</text>
<text text-anchor="start" x="421.103" y="-1018.4" font-family="Times Roman,serif" font-size="14.00">last_sign_in_at :datetime</text>
<text text-anchor="start" x="421.103" y="-1000.4" font-family="Times Roman,serif" font-size="14.00">current_sign_in_ip :string</text>
<text text-anchor="start" x="421.103" y="-982.4" font-family="Times Roman,serif" font-size="14.00">last_sign_in_ip :string</text>
<text text-anchor="start" x="421.103" y="-964.4" font-family="Times Roman,serif" font-size="14.00">name :string</text>
<text text-anchor="start" x="421.103" y="-946.4" font-family="Times Roman,serif" font-size="14.00">description :text</text>
<text text-anchor="start" x="421.103" y="-928.4" font-family="Times Roman,serif" font-size="14.00">created_at :datetime</text>
<text text-anchor="start" x="421.103" y="-910.4" font-family="Times Roman,serif" font-size="14.00">updated_at :datetime</text>
<text text-anchor="start" x="421.103" y="-892.4" font-family="Times Roman,serif" font-size="14.00">admin :boolean</text>
</g>
<!-- User&#45;&gt;Dataset -->
<g id="edge32" class="edge"><title>User&#45;&gt;Dataset</title>
<path fill="none" stroke="#d39ec7" d="M540.103,-874.839C540.103,-868.228 540.103,-861.658 540.103,-855.179"/>
<ellipse fill="none" stroke="#d39ec7" cx="540.103" cy="-878.935" rx="4" ry="4"/>
<polygon fill="#d39ec7" stroke="#d39ec7" points="540.103,-855.079 544.603,-845.079 540.103,-850.079 540.103,-845.079 540.103,-845.079 540.103,-845.079 540.103,-850.079 535.603,-845.079 540.103,-855.079 540.103,-855.079"/>
</g>
</g>
</svg>
