<?xml version="1.0" encoding="UTF-8" standalone="no"?>
<!DOCTYPE svg PUBLIC "-//W3C//DTD SVG 1.1//EN"
 "http://www.w3.org/Graphics/SVG/1.1/DTD/svg11.dtd">
<!-- Generated by graphviz version 2.26.3 (20100126.1600)
 -->
<!-- Title: models_diagram Pages: 1 -->
<svg width="1090pt" height="472pt"
 viewBox="0.00 0.00 1090.34 472.00" xmlns="http://www.w3.org/2000/svg" xmlns:xlink="http://www.w3.org/1999/xlink">
<g id="graph1" class="graph" transform="scale(1 1) rotate(0) translate(4 468)">
<title>models_diagram</title>
<polygon fill="white" stroke="white" points="-4,5 -4,-468 1087.34,-468 1087.34,5 -4,5"/>
<!-- _diagram_info -->
<g id="node1" class="node"><title>_diagram_info</title>
<text text-anchor="start" x="448.337" y="-447.8" font-family="Times Roman,serif" font-size="13.00">Models diagram</text>
<text text-anchor="start" x="448.337" y="-430.8" font-family="Times Roman,serif" font-size="13.00">Date: Feb 16 2013 &#45; 18:09</text>
<text text-anchor="start" x="448.337" y="-413.8" font-family="Times Roman,serif" font-size="13.00">Migration version: 13</text>
<text text-anchor="start" x="448.337" y="-396.8" font-family="Times Roman,serif" font-size="13.00">Generated by RailRoady 1.1.0</text>
<text text-anchor="start" x="448.337" y="-379.8" font-family="Times Roman,serif" font-size="13.00">http://railroady.prestonlee.com</text>
</g>
<!-- Transcript -->
<g id="node2" class="node"><title>Transcript</title>
<ellipse fill="none" stroke="black" cx="615.337" cy="-167" rx="58.8978" ry="18.3848"/>
<text text-anchor="middle" x="615.337" y="-163.4" font-family="Times Roman,serif" font-size="14.00">Transcript</text>
</g>
<!-- FpkmSample -->
<g id="node4" class="node"><title>FpkmSample</title>
<ellipse fill="none" stroke="black" cx="889.337" cy="-93" rx="73.0388" ry="18.3848"/>
<text text-anchor="middle" x="889.337" y="-89.4" font-family="Times Roman,serif" font-size="14.00">FpkmSample</text>
</g>
<!-- Transcript&#45;&gt;FpkmSample -->
<g id="edge4" class="edge"><title>Transcript&#45;&gt;FpkmSample</title>
<path fill="none" stroke="#c8d5f8" d="M668.296,-152.697C714.503,-140.218 781.495,-122.125 829.602,-109.133"/>
<ellipse fill="none" stroke="#c8d5f8" cx="664.138" cy="-153.82" rx="4.00001" ry="4.00001"/>
<polygon fill="#c8d5f8" stroke="#c8d5f8" points="829.609,-109.131 840.437,-110.868 834.436,-107.827 839.263,-106.524 839.263,-106.524 839.263,-106.524 834.436,-107.827 838.09,-102.179 829.609,-109.131 829.609,-109.131"/>
</g>
<!-- TranscriptFpkmTrackingInformation -->
<g id="node5" class="node"><title>TranscriptFpkmTrackingInformation</title>
<ellipse fill="none" stroke="black" cx="203.337" cy="-93" rx="183.141" ry="18.3848"/>
<text text-anchor="middle" x="203.337" y="-89.4" font-family="Times Roman,serif" font-size="14.00">TranscriptFpkmTrackingInformation</text>
</g>
<!-- Transcript&#45;&gt;TranscriptFpkmTrackingInformation -->
<g id="edge6" class="edge"><title>Transcript&#45;&gt;TranscriptFpkmTrackingInformation</title>
<path fill="none" stroke="#af7207" d="M555.831,-156.312C489.329,-144.367 380.618,-124.842 301.483,-110.628"/>
<ellipse fill="none" stroke="#af7207" cx="560.053" cy="-157.07" rx="4.00001" ry="4.00001"/>
<ellipse fill="#af7207" stroke="#af7207" cx="297.374" cy="-109.89" rx="4.00001" ry="4.00001"/>
</g>
<!-- DifferentialExpressionTest -->
<g id="node8" class="node"><title>DifferentialExpressionTest</title>
<ellipse fill="none" stroke="black" cx="659.337" cy="-93" rx="138.801" ry="18.3848"/>
<text text-anchor="middle" x="659.337" y="-89.4" font-family="Times Roman,serif" font-size="14.00">DifferentialExpressionTest</text>
</g>
<!-- Transcript&#45;&gt;DifferentialExpressionTest -->
<g id="edge2" class="edge"><title>Transcript&#45;&gt;DifferentialExpressionTest</title>
<path fill="none" stroke="#1c87ee" d="M630.338,-141.772C634.382,-134.971 638.778,-127.577 642.896,-120.651"/>
<ellipse fill="none" stroke="#1c87ee" cx="628.258" cy="-145.27" rx="4.00002" ry="4.00002"/>
<polygon fill="#1c87ee" stroke="#1c87ee" points="643.17,-120.191 652.148,-113.896 645.725,-115.893 648.28,-111.596 648.28,-111.596 648.28,-111.596 645.725,-115.893 644.413,-109.296 643.17,-120.191 643.17,-120.191"/>
</g>
<!-- GoTerm -->
<g id="node9" class="node"><title>GoTerm</title>
<ellipse fill="none" stroke="black" cx="453.337" cy="-93" rx="48.9975" ry="18.3848"/>
<text text-anchor="middle" x="453.337" y="-89.4" font-family="Times Roman,serif" font-size="14.00">GoTerm</text>
</g>
<!-- Transcript&#45;&gt;GoTerm -->
<g id="edge10" class="edge"><title>Transcript&#45;&gt;GoTerm</title>
<path fill="none" stroke="#b8a56d" d="M572.363,-147.37C548.019,-136.25 517.747,-122.422 493.825,-111.494"/>
<polygon fill="#b8a56d" stroke="#b8a56d" points="572.675,-147.512 579.901,-155.76 577.223,-149.59 581.771,-151.667 581.771,-151.667 581.771,-151.667 577.223,-149.59 583.641,-147.574 572.675,-147.512 572.675,-147.512"/>
<polygon fill="#b8a56d" stroke="#b8a56d" points="493.759,-111.464 486.532,-103.216 489.211,-109.387 484.663,-107.309 484.663,-107.309 484.663,-107.309 489.211,-109.387 482.793,-111.402 493.759,-111.464 493.759,-111.464"/>
</g>
<!-- TranscriptHasGoTerm -->
<g id="node12" class="node"><title>TranscriptHasGoTerm</title>
<ellipse fill="none" stroke="black" cx="222.337" cy="-19" rx="114.759" ry="18.3848"/>
<text text-anchor="middle" x="222.337" y="-15.4" font-family="Times Roman,serif" font-size="14.00">TranscriptHasGoTerm</text>
</g>
<!-- Transcript&#45;&gt;TranscriptHasGoTerm -->
<g id="edge8" class="edge"><title>Transcript&#45;&gt;TranscriptHasGoTerm</title>
<path fill="none" stroke="#347c29" d="M547.96,-165.871C397.985,-162.661 46.9619,-151.016 11.3373,-112 -28.3647,-68.5184 47.2041,-44.3017 118.694,-31.5661"/>
<ellipse fill="none" stroke="#347c29" cx="552.248" cy="-165.961" rx="4" ry="4"/>
<polygon fill="#347c29" stroke="#347c29" points="118.886,-31.5334 129.502,-34.2798 123.814,-30.6889 128.742,-29.8445 128.742,-29.8445 128.742,-29.8445 123.814,-30.6889 127.982,-25.4091 118.886,-31.5334 118.886,-31.5334"/>
</g>
<!-- Sample -->
<g id="node3" class="node"><title>Sample</title>
<ellipse fill="none" stroke="black" cx="846.337" cy="-241" rx="46.8775" ry="18.3848"/>
<text text-anchor="middle" x="846.337" y="-237.4" font-family="Times Roman,serif" font-size="14.00">Sample</text>
</g>
<!-- Sample&#45;&gt;Sample -->
<g id="edge16" class="edge"><title>Sample&#45;&gt;Sample</title>
<path fill="none" stroke="#b1504b" d="M889.12,-254.835C901.636,-254.365 911.337,-249.753 911.337,-241 911.337,-232.247 901.636,-227.635 889.12,-227.165"/>
<polygon fill="#b1504b" stroke="#b1504b" points="889.103,-254.834 879.314,-249.892 884.108,-254.611 879.113,-254.387 879.113,-254.387 879.113,-254.387 884.108,-254.611 878.912,-258.883 889.103,-254.834 889.103,-254.834"/>
<polygon fill="#b1504b" stroke="#b1504b" points="889.103,-227.166 878.912,-223.117 884.108,-227.389 879.113,-227.613 879.113,-227.613 879.113,-227.613 884.108,-227.389 879.314,-232.108 889.103,-227.166 889.103,-227.166"/>
</g>
<!-- Sample&#45;&gt;FpkmSample -->
<g id="edge12" class="edge"><title>Sample&#45;&gt;FpkmSample</title>
<path fill="none" stroke="#6f126f" d="M850.302,-214.063C853.437,-195.288 858.439,-169.8 865.337,-148 868.215,-138.907 872.104,-129.284 875.912,-120.673"/>
<ellipse fill="none" stroke="#6f126f" cx="849.63" cy="-218.23" rx="4.00001" ry="4.00001"/>
<polygon fill="#6f126f" stroke="#6f126f" points="875.964,-120.558 884.213,-113.333 878.042,-116.01 880.12,-111.463 880.12,-111.463 880.12,-111.463 878.042,-116.01 876.027,-109.593 875.964,-120.558 875.964,-120.558"/>
</g>
<!-- SampleComparison -->
<g id="node11" class="node"><title>SampleComparison</title>
<ellipse fill="none" stroke="black" cx="978.337" cy="-167" rx="104.151" ry="18.3848"/>
<text text-anchor="middle" x="978.337" y="-163.4" font-family="Times Roman,serif" font-size="14.00">SampleComparison</text>
</g>
<!-- Sample&#45;&gt;SampleComparison -->
<g id="edge14" class="edge"><title>Sample&#45;&gt;SampleComparison</title>
<path fill="none" stroke="#06f8e3" d="M880.36,-221.926C897.941,-212.07 919.514,-199.977 937.938,-189.648"/>
<ellipse fill="none" stroke="#06f8e3" cx="876.857" cy="-223.89" rx="4.00002" ry="4.00002"/>
<polygon fill="#06f8e3" stroke="#06f8e3" points="937.975,-189.627 948.898,-188.663 942.336,-187.182 946.698,-184.737 946.698,-184.737 946.698,-184.737 942.336,-187.182 944.497,-180.812 937.975,-189.627 937.975,-189.627"/>
</g>
<!-- Gene -->
<g id="node6" class="node"><title>Gene</title>
<ellipse fill="none" stroke="black" cx="702.337" cy="-241" rx="36.977" ry="18.3848"/>
<text text-anchor="middle" x="702.337" y="-237.4" font-family="Times Roman,serif" font-size="14.00">Gene</text>
</g>
<!-- Gene&#45;&gt;Transcript -->
<g id="edge18" class="edge"><title>Gene&#45;&gt;Transcript</title>
<path fill="none" stroke="#9590f7" d="M677.283,-219.689C666.855,-210.82 654.693,-200.475 643.919,-191.311"/>
<ellipse fill="none" stroke="#9590f7" cx="680.413" cy="-222.351" rx="4.00002" ry="4.00002"/>
<polygon fill="#9590f7" stroke="#9590f7" points="643.621,-191.057 638.919,-181.15 639.812,-187.818 636.003,-184.578 636.003,-184.578 636.003,-184.578 639.812,-187.818 633.088,-188.006 643.621,-191.057 643.621,-191.057"/>
</g>
<!-- Gene&#45;&gt;FpkmSample -->
<g id="edge22" class="edge"><title>Gene&#45;&gt;FpkmSample</title>
<path fill="none" stroke="#fa162a" d="M728.898,-219.979C763.13,-192.886 822.529,-145.875 858.654,-117.285"/>
<ellipse fill="none" stroke="#fa162a" cx="725.486" cy="-222.679" rx="4.00002" ry="4.00002"/>
<polygon fill="#fa162a" stroke="#fa162a" points="859.027,-116.989 869.661,-114.312 862.947,-113.886 866.868,-110.783 866.868,-110.783 866.868,-110.783 862.947,-113.886 864.075,-107.255 859.027,-116.989 859.027,-116.989"/>
</g>
<!-- Gene&#45;&gt;DifferentialExpressionTest -->
<g id="edge20" class="edge"><title>Gene&#45;&gt;DifferentialExpressionTest</title>
<path fill="none" stroke="#dcaa74" d="M698.431,-214.414C695.301,-195.607 690.279,-169.936 683.337,-148 680.46,-138.907 676.571,-129.284 672.762,-120.673"/>
<ellipse fill="none" stroke="#dcaa74" cx="699.102" cy="-218.585" rx="4.00001" ry="4.00001"/>
<polygon fill="#dcaa74" stroke="#dcaa74" points="672.71,-120.558 672.648,-109.593 670.632,-116.01 668.555,-111.463 668.555,-111.463 668.555,-111.463 670.632,-116.01 664.462,-113.333 672.71,-120.558 672.71,-120.558"/>
</g>
<!-- Dataset -->
<g id="node7" class="node"><title>Dataset</title>
<ellipse fill="none" stroke="black" cx="702.337" cy="-315" rx="50.2046" ry="18.3848"/>
<text text-anchor="middle" x="702.337" y="-311.4" font-family="Times Roman,serif" font-size="14.00">Dataset</text>
</g>
<!-- Dataset&#45;&gt;Transcript -->
<g id="edge26" class="edge"><title>Dataset&#45;&gt;Transcript</title>
<path fill="none" stroke="#0560a0" d="M679.788,-291.047C671.765,-281.788 663.062,-270.825 656.337,-260 643.551,-239.418 632.685,-214.157 625.358,-195.16"/>
<ellipse fill="none" stroke="#0560a0" cx="682.55" cy="-294.167" rx="4.00002" ry="4.00002"/>
<polygon fill="#0560a0" stroke="#0560a0" points="625.279,-194.948 625.973,-184.004 623.519,-190.267 621.76,-185.587 621.76,-185.587 621.76,-185.587 623.519,-190.267 617.548,-187.17 625.279,-194.948 625.279,-194.948"/>
</g>
<!-- Dataset&#45;&gt;Sample -->
<g id="edge28" class="edge"><title>Dataset&#45;&gt;Sample</title>
<path fill="none" stroke="#452314" d="M739.124,-296.096C760.301,-285.213 786.869,-271.56 808.259,-260.568"/>
<ellipse fill="none" stroke="#452314" cx="735.383" cy="-298.018" rx="4.00002" ry="4.00002"/>
<polygon fill="#452314" stroke="#452314" points="808.486,-260.451 819.438,-259.883 812.934,-258.166 817.381,-255.88 817.381,-255.88 817.381,-255.88 812.934,-258.166 815.324,-251.878 808.486,-260.451 808.486,-260.451"/>
</g>
<!-- Dataset&#45;&gt;Gene -->
<g id="edge24" class="edge"><title>Dataset&#45;&gt;Gene</title>
<path fill="none" stroke="#92c4b9" d="M702.337,-288.309C702.337,-282.377 702.337,-276.061 702.337,-270.04"/>
<ellipse fill="none" stroke="#92c4b9" cx="702.337" cy="-292.327" rx="4" ry="4"/>
<polygon fill="#92c4b9" stroke="#92c4b9" points="702.337,-269.667 706.837,-259.667 702.337,-264.667 702.337,-259.667 702.337,-259.667 702.337,-259.667 702.337,-264.667 697.837,-259.667 702.337,-269.667 702.337,-269.667"/>
</g>
<!-- GoTerm&#45;&gt;TranscriptHasGoTerm -->
<g id="edge30" class="edge"><title>GoTerm&#45;&gt;TranscriptHasGoTerm</title>
<path fill="none" stroke="#08f379" d="M408.348,-78.2191C403.953,-76.7882 399.56,-75.3628 395.337,-74 358.643,-62.1571 317.51,-49.0722 284.561,-38.6371"/>
<ellipse fill="none" stroke="#08f379" cx="412.421" cy="-79.548" rx="4.00001" ry="4.00001"/>
<polygon fill="#08f379" stroke="#08f379" points="284.146,-38.5058 275.97,-31.1978 279.379,-36.997 274.612,-35.4881 274.612,-35.4881 274.612,-35.4881 279.379,-36.997 273.254,-39.7783 284.146,-38.5058 284.146,-38.5058"/>
</g>
<!-- User -->
<g id="node10" class="node"><title>User</title>
<ellipse fill="none" stroke="black" cx="702.337" cy="-417" rx="33.9411" ry="18.3848"/>
<text text-anchor="middle" x="702.337" y="-413.4" font-family="Times Roman,serif" font-size="14.00">User</text>
</g>
<!-- User&#45;&gt;Dataset -->
<g id="edge32" class="edge"><title>User&#45;&gt;Dataset</title>
<path fill="none" stroke="#79b2ad" d="M702.337,-390.015C702.337,-375.835 702.337,-358.445 702.337,-343.98"/>
<ellipse fill="none" stroke="#79b2ad" cx="702.337" cy="-394.292" rx="4" ry="4"/>
<polygon fill="#79b2ad" stroke="#79b2ad" points="702.337,-343.59 706.837,-333.59 702.337,-338.59 702.337,-333.59 702.337,-333.59 702.337,-333.59 702.337,-338.59 697.837,-333.59 702.337,-343.59 702.337,-343.59"/>
</g>
</g>
</svg>
